# xmcd
#
# Track frame offsets:
# 225
# 12382
# 22807
# 35965
# 51243
# 65437
# 79692
# 91686
# 105142
# 117239
# 129533
# 140613
# 152800
# 163520
# 173940
# 184978
# 196968
# 208680
# 218763
# 231241
# 243900
# 257031
# 269947
# 282513
# 295276
# 308345
# 320422
# 332506
#
# Disc length: 4598 seconds
#
#
# Revision: 0
# Processed by: cddbd v1.5.2PL0 Copyright (c) Steve Scherf et al.
# Submitted via: FreeRIP 2.944 
#
DISCID=9811f31c
DTITLE=Connee Boswell - Singing the Blues with Connee Boswell
DYEAR=2006
DGENRE=
TTITLE0=Begin the Beguine
TTITLE1=Believe It Beloved
TTITLE2=I Know What It Means to be Lonesome
TTITLE3=Someone Stole My Darlin'
TTITLE4=My Little Nest of Heavenly Blue
TTITLE5=Where There's Smoke There's Fire
TTITLE6=It Made Me Happy when You Made Me Cry
TTITLE7=Singin' the Blues
TTITLE8=With One Red Rose
TTITLE9=Main Street on Saturday Night
TTITLE10=You Need Some Lovin'
TTITLE11=I'm Gonna Sit Right Down and Write Myself a Letter
TTITLE12=I Gotta Right to Sing the Blues
TTITLE13=The Heebie Jeebie Blues
TTITLE14=The Right Kind of Man
TTITLE15=Someday, Sweetheart
TTITLE16=Baby, Won't You Please Come Home
TTITLE17=Call Me Darling
TTITLE18=The Philadelphia Waltz
TTITLE19=T-E-N-N-E-S-S-E-E
TTITLE20=If I Give My Heart to You
TTITLE21=How Important Can It Be?
TTITLE22=Fill My Heart with Happiness
TTITLE23=Our Lady of the Highway
TTITLE24=Don't Believe Everyone's Your Friend
TTITLE25=Mind If I Tag Along
TTITLE26=I Compare You
TTITLE27=No Other One
EXTD=
EXTT0=
EXTT1=
EXTT2=
EXTT3=
EXTT4=
EXTT5=
EXTT6=
EXTT7=
EXTT8=
EXTT9=
EXTT10=
EXTT11=
EXTT12=
EXTT13=
EXTT14=
EXTT15=
EXTT16=
EXTT17=
EXTT18=
EXTT19=
EXTT20=
EXTT21=
EXTT22=
EXTT23=
EXTT24=
EXTT25=
EXTT26=
EXTT27=
PLAYORDER=
